<?xml version="1.0" encoding="UTF-8" standalone="no"?>
<!-- Generator: Adobe Illustrator 19.0.0, SVG Export Plug-In . SVG Version: 6.00 Build 0)  -->

<svg
   xmlns:dc="http://purl.org/dc/elements/1.1/"
   xmlns:cc="http://creativecommons.org/ns#"
   xmlns:rdf="http://www.w3.org/1999/02/22-rdf-syntax-ns#"
   xmlns:svg="http://www.w3.org/2000/svg"
   xmlns="http://www.w3.org/2000/svg"
   xmlns:sodipodi="http://sodipodi.sourceforge.net/DTD/sodipodi-0.dtd"
   xmlns:inkscape="http://www.inkscape.org/namespaces/inkscape"
   version="1.1"
   id="Capa_1"
   x="0px"
   y="0px"
   viewBox="0 0 489.001 489.001"
   style="enable-background:new 0 0 489.001 489.001;"
   xml:space="preserve"
   sodipodi:docname="AcuStock-logo-v4.svg"
   inkscape:label="Layer"
   inkscape:version="0.92.3 (d244b95, 2018-08-02)"
   inkscape:export-filename="/home/michael/Downloads/AcuStock-logo4.png"
   inkscape:export-xdpi="100.48"
   inkscape:export-ydpi="100.48"><metadata
   id="metadata41"><rdf:RDF><cc:Work
       rdf:about=""><dc:format>image/svg+xml</dc:format><dc:type
         rdf:resource="http://purl.org/dc/dcmitype/StillImage" /><dc:title /></cc:Work></rdf:RDF></metadata><defs
   id="defs39" /><sodipodi:namedview
   pagecolor="#ffffff"
   bordercolor="#666666"
   borderopacity="1"
   objecttolerance="10"
   gridtolerance="10"
   guidetolerance="10"
   inkscape:pageopacity="0"
   inkscape:pageshadow="2"
   inkscape:window-width="1920"
   inkscape:window-height="1025"
   id="namedview37"
   showgrid="true"
   inkscape:zoom="1"
   inkscape:cx="231.75571"
   inkscape:cy="360.38779"
   inkscape:window-x="1920"
   inkscape:window-y="27"
   inkscape:window-maximized="1"
   inkscape:current-layer="layer4"
   inkscape:measure-start="468.203,110.493"
   inkscape:measure-end="468.453,110.493"
   showguides="true"><inkscape:grid
     type="xygrid"
     id="grid910" /></sodipodi:namedview>

<g
   id="g6">
</g>
<g
   id="g8">
</g>
<g
   id="g10">
</g>
<g
   id="g12">
</g>
<g
   id="g14">
</g>
<g
   id="g16">
</g>
<g
   id="g18">
</g>
<g
   id="g20">
</g>
<g
   id="g22">
</g>
<g
   id="g24">
</g>
<g
   id="g26">
</g>
<g
   id="g28">
</g>
<g
   id="g30">
</g>
<g
   id="g32">
</g>
<g
   id="g34">
</g>
<g
   inkscape:groupmode="layer"
   id="layer1"
   inkscape:label="Layer 1"
   style="display:inline"><path
     style="fill:#afafaf;fill-opacity:1;stroke:#afafaf;stroke-width:1px;stroke-linecap:butt;stroke-linejoin:miter;stroke-opacity:1"
     d="M 224.21783,274.8423 V 48.208319 L 244.501,41.561 l 20.33669,6.608105 -0.0555,226.666235 z"
     id="path4588"
     inkscape:connector-curvature="0"
     sodipodi:nodetypes="cccccc" /><path
     style="fill:#afafaf;fill-opacity:1;stroke:#afafaf;stroke-width:1px;stroke-linecap:butt;stroke-linejoin:miter;stroke-opacity:1"
     d="M 223.19636,275.73309 37.506305,346.9511 37.426205,390.25698 223.24003,318.64705 Z"
     id="path3766"
     inkscape:connector-curvature="0"
     sodipodi:nodetypes="ccccc" /><path
     id="path3766-6"
     style="display:inline;fill:#afafaf;fill-opacity:1;stroke:#afafaf;stroke-width:1px;stroke-linecap:butt;stroke-linejoin:miter;stroke-opacity:1"
     d="m 265.55899,275.62822 -0.0469,42.93761 185.81641,71.58778 -0.32227,-43.29883 z"
     inkscape:connector-curvature="0"
     sodipodi:nodetypes="ccccc" /></g><g
   inkscape:groupmode="layer"
   id="layer3"
   inkscape:label="Layer 2"
   style="display:inline"><path
     d="m 470.401,75.561 -219.7,-74.6 c -5.2,-1 -9.4,-1 -13.5,0 l -219.8,74.7 c -17.9,5.5 -17.4,19.6 -17.4,20 v 287.1 c 0,8.3 5.2,15.6 13.5,18.7 l 223.7,86.3 c 4,1.7 12.5,1 14.6,0 l 224.13648,-86.19749 c 8.3,-3.1 13.06352,-10.40251 13.06352,-18.70251 v -287.2 c 0,-6.2 -3.8,-18.2 -18.6,-20.1 z m -225.9,-34 164.4,55.1 -164.4,62.5 -164.4,-62.5 z m -203.9,326.7 0.01105,-242.34476 L 223.701,195.561 v 243.4 z m 407.8,0 -183.1,70.7 v -242.8 l 183.1,-70.3 z"
     id="path2"
     inkscape:connector-curvature="0"
     style="fill:#488aff;fill-opacity:1"
     sodipodi:nodetypes="ccccssccccsscccccccccccccccc" /><path
     style="fill:#e00b0a;fill-opacity:1;stroke:#e00b0a;stroke-width:1px;stroke-linecap:butt;stroke-linejoin:miter;stroke-opacity:1"
     d="M 223.21374,81.849819 223.22446,49.140533 81.452664,96.720687 127.81329,114.267 Z"
     id="path847"
     inkscape:connector-curvature="0"
     sodipodi:nodetypes="ccccc" /></g><g
   inkscape:groupmode="layer"
   id="layer2"
   inkscape:label="Layer"
   style="display:inline"><g
     id="g4"
     style="fill:#488aff;fill-opacity:1" /><path
     style="fill:#7e7e7e;fill-opacity:1;stroke:#7e7e7e;stroke-width:1px;stroke-linecap:butt;stroke-linejoin:miter;stroke-opacity:1"
     d="m 252.7385,486.8235 c 0,0 -5.77778,2.73817 -14.48457,0.67935 -7.0197,-1.65989 -223.498726,-86.13312 -223.498726,-86.13312 0,0 -14.23303836,-3.92295 -14.25612393,-18.60394 -0.001203,-0.76505 0.0110207,-13.88632 0.0110207,-13.88632 l 19.74165923,9.12154 20.377809,-9.19406 183.575081,70.88672 0.005,-243.40346 20.70772,7.91791 19.92525,-7.40374 -0.0442,242.88839 183.58342,-70.8849 19.98115,9.19314 19.90041,-9.13259 0.30287,12.96838 c 0,0 1.43418,14.16421 -12.97192,19.47671 z"
     id="path843"
     inkscape:connector-curvature="0"
     sodipodi:nodetypes="cscscccccccccccccc" /></g><g
   inkscape:groupmode="layer"
   id="layer4"
   inkscape:label="Layer 3"
   style="display:inline"><path
     style="fill:#e00b0a;fill-opacity:1;stroke:#e00b0a;stroke-width:1px;stroke-linecap:butt;stroke-linejoin:miter;stroke-opacity:1"
     d="m 41.099437,169.64817 0.004,-43.01458 203.813414,77.57453 202.97259,-77.62154 0.006,241.33434 -182.09888,70.31478 0.006,-35.89012 144.67991,-54.01866 0.0231,-166.06554 -165.49188,66.56374 z"
     id="path849"
     inkscape:connector-curvature="0"
     sodipodi:nodetypes="ccccccccccc" /></g></svg>